<svg id="visual" viewBox="0 0 4000 3000" width="4000" height="3000" xmlns="http://www.w3.org/2000/svg" xmlns:xlink="http://www.w3.org/1999/xlink" version="1.1"><rect x="0" y="0" width="4000" height="3000" fill="#841818"></rect><defs><linearGradient id="grad1_0" x1="25%" y1="100%" x2="100%" y2="0%"><stop offset="23.333333333333336%" stop-color="#f7caca" stop-opacity="1"></stop><stop offset="76.66666666666666%" stop-color="#f7caca" stop-opacity="1"></stop></linearGradient></defs><defs><linearGradient id="grad1_1" x1="25%" y1="100%" x2="100%" y2="0%"><stop offset="23.333333333333336%" stop-color="#f7caca" stop-opacity="1"></stop><stop offset="76.66666666666666%" stop-color="#e3a6a5" stop-opacity="1"></stop></linearGradient></defs><defs><linearGradient id="grad1_2" x1="25%" y1="100%" x2="100%" y2="0%"><stop offset="23.333333333333336%" stop-color="#ce8380" stop-opacity="1"></stop><stop offset="76.66666666666666%" stop-color="#e3a6a5" stop-opacity="1"></stop></linearGradient></defs><defs><linearGradient id="grad1_3" x1="25%" y1="100%" x2="100%" y2="0%"><stop offset="23.333333333333336%" stop-color="#ce8380" stop-opacity="1"></stop><stop offset="76.66666666666666%" stop-color="#b7615c" stop-opacity="1"></stop></linearGradient></defs><defs><linearGradient id="grad1_4" x1="25%" y1="100%" x2="100%" y2="0%"><stop offset="23.333333333333336%" stop-color="#9e3f39" stop-opacity="1"></stop><stop offset="76.66666666666666%" stop-color="#b7615c" stop-opacity="1"></stop></linearGradient></defs><defs><linearGradient id="grad1_5" x1="25%" y1="100%" x2="100%" y2="0%"><stop offset="23.333333333333336%" stop-color="#9e3f39" stop-opacity="1"></stop><stop offset="76.66666666666666%" stop-color="#841818" stop-opacity="1"></stop></linearGradient></defs><defs><linearGradient id="grad2_0" x1="0%" y1="100%" x2="75%" y2="0%"><stop offset="23.333333333333336%" stop-color="#f7caca" stop-opacity="1"></stop><stop offset="76.66666666666666%" stop-color="#f7caca" stop-opacity="1"></stop></linearGradient></defs><defs><linearGradient id="grad2_1" x1="0%" y1="100%" x2="75%" y2="0%"><stop offset="23.333333333333336%" stop-color="#e3a6a5" stop-opacity="1"></stop><stop offset="76.66666666666666%" stop-color="#f7caca" stop-opacity="1"></stop></linearGradient></defs><defs><linearGradient id="grad2_2" x1="0%" y1="100%" x2="75%" y2="0%"><stop offset="23.333333333333336%" stop-color="#e3a6a5" stop-opacity="1"></stop><stop offset="76.66666666666666%" stop-color="#ce8380" stop-opacity="1"></stop></linearGradient></defs><defs><linearGradient id="grad2_3" x1="0%" y1="100%" x2="75%" y2="0%"><stop offset="23.333333333333336%" stop-color="#b7615c" stop-opacity="1"></stop><stop offset="76.66666666666666%" stop-color="#ce8380" stop-opacity="1"></stop></linearGradient></defs><defs><linearGradient id="grad2_4" x1="0%" y1="100%" x2="75%" y2="0%"><stop offset="23.333333333333336%" stop-color="#b7615c" stop-opacity="1"></stop><stop offset="76.66666666666666%" stop-color="#9e3f39" stop-opacity="1"></stop></linearGradient></defs><defs><linearGradient id="grad2_5" x1="0%" y1="100%" x2="75%" y2="0%"><stop offset="23.333333333333336%" stop-color="#841818" stop-opacity="1"></stop><stop offset="76.66666666666666%" stop-color="#9e3f39" stop-opacity="1"></stop></linearGradient></defs><g transform="translate(4000, 3000)"><path d="M-1875 0C-1809.3 -224.3 -1743.5 -448.7 -1667.6 -690.7C-1591.7 -932.8 -1505.5 -1192.5 -1325.8 -1325.8C-1146.2 -1459.1 -873 -1466 -636.4 -1536.4C-399.8 -1606.9 -199.9 -1740.9 0 -1875L0 0Z" fill="#912d28"></path><path d="M-1562.5 0C-1507.7 -187 -1453 -373.9 -1389.7 -575.6C-1326.4 -777.3 -1254.6 -993.8 -1104.9 -1104.9C-955.1 -1215.9 -727.5 -1221.6 -530.3 -1280.3C-333.2 -1339.1 -166.6 -1450.8 0 -1562.5L0 0Z" fill="#ab504a"></path><path d="M-1250 0C-1206.2 -149.6 -1162.4 -299.1 -1111.7 -460.5C-1061.1 -621.9 -1003.7 -795 -883.9 -883.9C-764.1 -972.7 -582 -977.3 -424.3 -1024.3C-266.6 -1071.2 -133.3 -1160.6 0 -1250L0 0Z" fill="#c3726e"></path><path d="M-937.5 0C-904.6 -112.2 -871.8 -224.3 -833.8 -345.4C-795.8 -466.4 -752.8 -596.3 -662.9 -662.9C-573.1 -729.6 -436.5 -733 -318.2 -768.2C-199.9 -803.4 -100 -870.5 0 -937.5L0 0Z" fill="#d99592"></path><path d="M-625 0C-603.1 -74.8 -581.2 -149.6 -555.9 -230.2C-530.6 -310.9 -501.8 -397.5 -441.9 -441.9C-382.1 -486.4 -291 -488.7 -212.1 -512.1C-133.3 -535.6 -66.6 -580.3 0 -625L0 0Z" fill="#edb8b7"></path><path d="M-312.5 0C-301.5 -37.4 -290.6 -74.8 -277.9 -115.1C-265.3 -155.5 -250.9 -198.8 -221 -221C-191 -243.2 -145.5 -244.3 -106.1 -256.1C-66.6 -267.8 -33.3 -290.2 0 -312.5L0 0Z" fill="#f7caca"></path></g><g transform="translate(0, 0)"><path d="M1875 0C1838.1 236.4 1801.1 472.9 1721.2 712.9C1641.3 953 1518.3 1196.7 1325.8 1325.8C1133.3 1455 871.3 1469.5 638.7 1542C406.1 1614.4 203.1 1744.7 0 1875L0 0Z" fill="#912d28"></path><path d="M1562.5 0C1531.7 197 1500.9 394.1 1434.3 594.1C1367.7 794.2 1265.3 997.2 1104.9 1104.9C944.4 1212.5 726.1 1224.6 532.2 1285C338.4 1345.3 169.2 1453.9 0 1562.5L0 0Z" fill="#ab504a"></path><path d="M1250 0C1225.4 157.6 1200.7 315.2 1147.5 475.3C1094.2 635.3 1012.2 797.8 883.9 883.9C755.6 970 580.8 979.7 425.8 1028C270.8 1076.3 135.4 1163.1 0 1250L0 0Z" fill="#c3726e"></path><path d="M937.5 0C919 118.2 900.6 236.4 860.6 356.5C820.6 476.5 759.2 598.3 662.9 662.9C566.7 727.5 435.6 734.8 319.3 771C203.1 807.2 101.5 872.3 0 937.5L0 0Z" fill="#d99592"></path><path d="M625 0C612.7 78.8 600.4 157.6 573.7 237.6C547.1 317.7 506.1 398.9 441.9 441.9C377.8 485 290.4 489.8 212.9 514C135.4 538.1 67.7 581.6 0 625L0 0Z" fill="#edb8b7"></path><path d="M312.5 0C306.3 39.4 300.2 78.8 286.9 118.8C273.5 158.8 253.1 199.4 221 221C188.9 242.5 145.2 244.9 106.4 257C67.7 269.1 33.8 290.8 0 312.5L0 0Z" fill="#f7caca"></path></g></svg>