<svg id="visual" viewBox="0 0 900 600" width="900" height="600" xmlns="http://www.w3.org/2000/svg" xmlns:xlink="http://www.w3.org/1999/xlink" version="1.1"><rect x="0" y="0" width="900" height="600" fill="#CCCCCC"></rect><g fill="#A7233A"><circle r="60" cx="149" cy="247"></circle><circle r="4" cx="852" cy="202"></circle><circle r="40" cx="202" cy="457"></circle><circle r="44" cx="556" cy="596"></circle><circle r="36" cx="730" cy="201"></circle><circle r="42" cx="16" cy="424"></circle><circle r="46" cx="526" cy="280"></circle><circle r="19" cx="215" cy="104"></circle><circle r="10" cx="313" cy="551"></circle><circle r="45" cx="713" cy="35"></circle><circle r="42" cx="410" cy="346"></circle><circle r="57" cx="719" cy="383"></circle><circle r="43" cx="419" cy="84"></circle><circle r="37" cx="18" cy="241"></circle><circle r="36" cx="426" cy="204"></circle><circle r="24" cx="563" cy="88"></circle><circle r="58" cx="887" cy="454"></circle><circle r="50" cx="513" cy="468"></circle><circle r="21" cx="771" cy="567"></circle><circle r="28" cx="273" cy="313"></circle><circle r="56" cx="895" cy="55"></circle><circle r="41" cx="18" cy="103"></circle><circle r="52" cx="75" cy="598"></circle><circle r="31" cx="295" cy="8"></circle><circle r="42" cx="665" cy="494"></circle><circle r="9" cx="437" cy="579"></circle><circle r="9" cx="122" cy="9"></circle><circle r="35" cx="888" cy="598"></circle><circle r="17" cx="853" cy="324"></circle><circle r="35" cx="197" cy="581"></circle></g></svg>