<svg id="visual" viewBox="0 0 4000 3000" width="4000" height="3000" xmlns="http://www.w3.org/2000/svg" xmlns:xlink="http://www.w3.org/1999/xlink" version="1.1"><rect x="0" y="0" width="4000" height="3000" fill="#CCCCCC"></rect><g fill="none" stroke="#A7233A" stroke-width="19"><circle r="322" cx="2848" cy="712"></circle><circle r="19" cx="2307" cy="298"></circle><circle r="137" cx="3400" cy="2320"></circle><circle r="205" cx="1329" cy="873"></circle><circle r="275" cx="598" cy="523"></circle><circle r="179" cx="1727" cy="2818"></circle><circle r="45" cx="2150" cy="2088"></circle><circle r="164" cx="3524" cy="685"></circle><circle r="226" cx="434" cy="2493"></circle><circle r="143" cx="2503" cy="2918"></circle><circle r="46" cx="3673" cy="1640"></circle><circle r="142" cx="1136" cy="1589"></circle><circle r="44" cx="2784" cy="1363"></circle><circle r="27" cx="1099" cy="111"></circle><circle r="296" cx="3827" cy="76"></circle><circle r="145" cx="1027" cy="2985"></circle><circle r="139" cx="2100" cy="946"></circle><circle r="244" cx="14" cy="1670"></circle><circle r="49" cx="167" cy="1007"></circle><circle r="86" cx="3188" cy="2991"></circle><circle r="229" cx="3855" cy="2927"></circle><circle r="199" cx="3050" cy="6"></circle><circle r="165" cx="1256" cy="2298"></circle><circle r="45" cx="5" cy="156"></circle><circle r="280" cx="2805" cy="2017"></circle></g></svg>